#Comment line ignore any data following # character 
#Hierarchical Translation and Rotation (.htr) file 
[Header]	
#Header keywords are followed by a single value 
FileType HTR		#Single word string
DataType HTRS		#Translation followed by rotation and scale data
FileVersion 1		#integer
NumSegments 84		#integer
NumFrames 2		#integer
DataFrameRate 30		#integer, data frame rate in this file
EulerRotationOrder ZYX
CalibrationUnits mm
RotationUnits Degrees
GlobalAxisofGravity Y
BoneLengthAxis Y
ScaleFactor 1.00
[SegmentNames&Hierarchy]
#CHILD	PARENT
MASTER GLOBAL
root MASTER
chest root
L_mid_tent01 root
R_mid_tent01 root
spine01 root
Bip01_Neck chest
L_humerus chest
R_humerus chest
weapon_bone chest
Bip01_Head Bip01_Neck
eye_left_bone Bip01_Head
eye_right_bone Bip01_Head
L_forearm L_humerus
L_front_hand L_forearm
L_weapon_bone L_forearm
L_front_hand01_01 L_front_hand
L_front_hand02_01 L_front_hand
L_front_hand03_01 L_front_hand
L_front_hand01_02 L_front_hand01_01
L_front_hand02_02 L_front_hand02_01
L_front_hand03_02 L_front_hand03_01
R_forearm R_humerus
R_front_hand R_forearm
R_weapon_bone R_forearm
R_front_hand01_01 R_front_hand
R_front_hand02_01 R_front_hand
R_front_hand03_01 R_front_hand
R_front_hand01_02 R_front_hand01_01
R_front_hand02_02 R_front_hand02_01
R_front_hand03_02 R_front_hand03_01
null_rope01_connect L_mid_tent01
Rope1_Seg01 null_rope01_connect
Rope1_Seg02 Rope1_Seg01
Rope1_Seg03 Rope1_Seg02
Rope1_Seg04 Rope1_Seg03
Rope1_Seg05 Rope1_Seg04
Rope1_Seg06 Rope1_Seg05
Rope1_Seg07 Rope1_Seg06
Rope1_Seg09 Rope1_Seg07
L_mid_hand01 Rope1_Seg09
L_mid_hand02 Rope1_Seg09
L_mid_hand03 Rope1_Seg09
null_rope02_connect R_mid_tent01
Rope2_Seg01 null_rope02_connect
Rope2_Seg02 Rope2_Seg01
Rope2_Seg03 Rope2_Seg02
Rope2_Seg04 Rope2_Seg03
Rope2_Seg05 Rope2_Seg04
Rope2_Seg06 Rope2_Seg05
Rope2_Seg07 Rope2_Seg06
Rope2_Seg09 Rope2_Seg07
R_mid_hand01 Rope2_Seg09
R_mid_hand02 Rope2_Seg09
R_mid_hand03 Rope2_Seg09
spine02 spine01
spine03 spine02
pelvis spine03
null_rope03_connect pelvis
null_rope04_connect pelvis
Rope3_Seg01 null_rope03_connect
Rope3_Seg02 Rope3_Seg01
Rope3_Seg03 Rope3_Seg02
Rope3_Seg04 Rope3_Seg03
Rope3_Seg05 Rope3_Seg04
Rope3_Seg06 Rope3_Seg05
Rope3_Seg07 Rope3_Seg06
Rope3_Seg08 Rope3_Seg07
Rope3_Seg09 Rope3_Seg08
R_rear_hand01 Rope3_Seg09
R_rear_hand02 Rope3_Seg09
R_rear_hand03 Rope3_Seg09
Rope4_Seg01 null_rope04_connect
Rope4_Seg02 Rope4_Seg01
Rope4_Seg03 Rope4_Seg02
Rope4_Seg04 Rope4_Seg03
Rope4_Seg05 Rope4_Seg04
Rope4_Seg06 Rope4_Seg05
Rope4_Seg07 Rope4_Seg06
Rope4_Seg08 Rope4_Seg07
Rope4_Seg09 Rope4_Seg08
L_rear_hand01 Rope4_Seg09
L_rear_hand02 Rope4_Seg09
L_rear_hand03 Rope4_Seg09
[BasePosition]
#SegmentName Tx, Ty, Tz, Rx, Ry, Rz, BoneLength
MASTER 0.000000 0.000000 0.000000 -90.000000 0.000000 0.000000 10.000000 
root 0.000000 0.000000 0.000000 0.000000 0.000000 0.000000 10.000000 
chest 0.000000 0.000000 0.000000 0.000000 0.000000 0.000000 10.000000 
L_mid_tent01 0.000000 0.000000 0.000000 0.000000 0.000000 0.000000 10.000000 
R_mid_tent01 0.000000 0.000000 0.000000 0.000000 0.000000 0.000000 10.000000 
spine01 0.000000 0.000000 0.000000 0.000000 0.000000 0.000000 10.000000 
Bip01_Neck 0.000000 0.000000 0.000000 0.000000 0.000000 0.000000 10.000000 
L_humerus 0.000000 0.000000 0.000000 0.000000 0.000000 0.000000 10.000000 
R_humerus 0.000000 0.000000 0.000000 0.000000 0.000000 0.000000 10.000000 
weapon_bone 0.000000 0.000000 0.000000 0.000000 0.000000 0.000000 10.000000 
Bip01_Head 0.000000 0.000000 0.000000 0.000000 0.000000 0.000000 10.000000 
eye_left_bone 0.000000 0.000000 0.000000 0.000000 0.000000 0.000000 10.000000 
eye_right_bone 0.000000 0.000000 0.000000 0.000000 0.000000 0.000000 10.000000 
L_forearm 0.000000 0.000000 0.000000 0.000000 0.000000 0.000000 10.000000 
L_front_hand 0.000000 0.000000 0.000000 0.000000 0.000000 0.000000 10.000000 
L_weapon_bone 0.000000 0.000000 0.000000 0.000000 0.000000 0.000000 10.000000 
L_front_hand01_01 0.000000 0.000000 0.000000 0.000000 0.000000 0.000000 10.000000 
L_front_hand02_01 0.000000 0.000000 0.000000 0.000000 0.000000 0.000000 10.000000 
L_front_hand03_01 0.000000 0.000000 0.000000 0.000000 0.000000 0.000000 10.000000 
L_front_hand01_02 0.000000 0.000000 0.000000 0.000000 0.000000 0.000000 10.000000 
L_front_hand02_02 0.000000 0.000000 0.000000 0.000000 0.000000 0.000000 10.000000 
L_front_hand03_02 0.000000 0.000000 0.000000 0.000000 0.000000 0.000000 10.000000 
R_forearm 0.000000 0.000000 0.000000 0.000000 0.000000 0.000000 10.000000 
R_front_hand 0.000000 0.000000 0.000000 0.000000 0.000000 0.000000 10.000000 
R_weapon_bone 0.000000 0.000000 0.000000 0.000000 0.000000 0.000000 10.000000 
R_front_hand01_01 0.000000 0.000000 0.000000 0.000000 0.000000 0.000000 10.000000 
R_front_hand02_01 0.000000 0.000000 0.000000 0.000000 0.000000 0.000000 10.000000 
R_front_hand03_01 0.000000 0.000000 0.000000 0.000000 0.000000 0.000000 10.000000 
R_front_hand01_02 0.000000 0.000000 0.000000 0.000000 0.000000 0.000000 10.000000 
R_front_hand02_02 0.000000 0.000000 0.000000 0.000000 0.000000 0.000000 10.000000 
R_front_hand03_02 0.000000 0.000000 0.000000 0.000000 0.000000 0.000000 10.000000 
null_rope01_connect 0.000000 0.000000 0.000000 0.000000 0.000000 0.000000 10.000000 
Rope1_Seg01 0.000000 0.000000 0.000000 0.000000 0.000000 0.000000 10.000000 
Rope1_Seg02 0.000000 0.000000 0.000000 0.000000 0.000000 0.000000 10.000000 
Rope1_Seg03 0.000000 0.000000 0.000000 0.000000 0.000000 0.000000 10.000000 
Rope1_Seg04 0.000000 0.000000 0.000000 0.000000 0.000000 0.000000 10.000000 
Rope1_Seg05 0.000000 0.000000 0.000000 0.000000 0.000000 0.000000 10.000000 
Rope1_Seg06 0.000000 0.000000 0.000000 0.000000 0.000000 0.000000 10.000000 
Rope1_Seg07 0.000000 0.000000 0.000000 0.000000 0.000000 0.000000 10.000000 
Rope1_Seg09 0.000000 0.000000 0.000000 0.000000 0.000000 0.000000 10.000000 
L_mid_hand01 0.000000 0.000000 0.000000 0.000000 0.000000 0.000000 10.000000 
L_mid_hand02 0.000000 0.000000 0.000000 0.000000 0.000000 0.000000 10.000000 
L_mid_hand03 0.000000 0.000000 0.000000 0.000000 0.000000 0.000000 10.000000 
null_rope02_connect 0.000000 0.000000 0.000000 0.000000 0.000000 0.000000 10.000000 
Rope2_Seg01 0.000000 0.000000 0.000000 0.000000 0.000000 0.000000 10.000000 
Rope2_Seg02 0.000000 0.000000 0.000000 0.000000 0.000000 0.000000 10.000000 
Rope2_Seg03 0.000000 0.000000 0.000000 0.000000 0.000000 0.000000 10.000000 
Rope2_Seg04 0.000000 0.000000 0.000000 0.000000 0.000000 0.000000 10.000000 
Rope2_Seg05 0.000000 0.000000 0.000000 0.000000 0.000000 0.000000 10.000000 
Rope2_Seg06 0.000000 0.000000 0.000000 0.000000 0.000000 0.000000 10.000000 
Rope2_Seg07 0.000000 0.000000 0.000000 0.000000 0.000000 0.000000 10.000000 
Rope2_Seg09 0.000000 0.000000 0.000000 0.000000 0.000000 0.000000 10.000000 
R_mid_hand01 0.000000 0.000000 0.000000 0.000000 0.000000 0.000000 10.000000 
R_mid_hand02 0.000000 0.000000 0.000000 0.000000 0.000000 0.000000 10.000000 
R_mid_hand03 0.000000 0.000000 0.000000 0.000000 0.000000 0.000000 10.000000 
spine02 0.000000 0.000000 0.000000 0.000000 0.000000 0.000000 10.000000 
spine03 0.000000 0.000000 0.000000 0.000000 0.000000 0.000000 10.000000 
pelvis 0.000000 0.000000 0.000000 0.000000 0.000000 0.000000 10.000000 
null_rope03_connect 0.000000 0.000000 0.000000 0.000000 0.000000 0.000000 10.000000 
null_rope04_connect 0.000000 0.000000 0.000000 0.000000 0.000000 0.000000 10.000000 
Rope3_Seg01 0.000000 0.000000 0.000000 0.000000 0.000000 0.000000 10.000000 
Rope3_Seg02 0.000000 0.000000 0.000000 0.000000 0.000000 0.000000 10.000000 
Rope3_Seg03 0.000000 0.000000 0.000000 0.000000 0.000000 0.000000 10.000000 
Rope3_Seg04 0.000000 0.000000 0.000000 0.000000 0.000000 0.000000 10.000000 
Rope3_Seg05 0.000000 0.000000 0.000000 0.000000 0.000000 0.000000 10.000000 
Rope3_Seg06 0.000000 0.000000 0.000000 0.000000 0.000000 0.000000 10.000000 
Rope3_Seg07 0.000000 0.000000 0.000000 0.000000 0.000000 0.000000 10.000000 
Rope3_Seg08 0.000000 0.000000 0.000000 0.000000 0.000000 0.000000 10.000000 
Rope3_Seg09 0.000000 0.000000 0.000000 0.000000 0.000000 0.000000 10.000000 
R_rear_hand01 0.000000 0.000000 0.000000 0.000000 0.000000 0.000000 10.000000 
R_rear_hand02 0.000000 0.000000 0.000000 0.000000 0.000000 0.000000 10.000000 
R_rear_hand03 0.000000 0.000000 0.000000 0.000000 0.000000 0.000000 10.000000 
Rope4_Seg01 0.000000 0.000000 0.000000 0.000000 0.000000 0.000000 10.000000 
Rope4_Seg02 0.000000 0.000000 0.000000 0.000000 0.000000 0.000000 10.000000 
Rope4_Seg03 0.000000 0.000000 0.000000 0.000000 0.000000 0.000000 10.000000 
Rope4_Seg04 0.000000 0.000000 0.000000 0.000000 0.000000 0.000000 10.000000 
Rope4_Seg05 0.000000 0.000000 0.000000 0.000000 0.000000 0.000000 10.000000 
Rope4_Seg06 0.000000 0.000000 0.000000 0.000000 0.000000 0.000000 10.000000 
Rope4_Seg07 0.000000 0.000000 0.000000 0.000000 0.000000 0.000000 10.000000 
Rope4_Seg08 0.000000 0.000000 0.000000 0.000000 0.000000 0.000000 10.000000 
Rope4_Seg09 0.000000 0.000000 0.000000 0.000000 0.000000 0.000000 10.000000 
L_rear_hand01 0.000000 0.000000 0.000000 0.000000 0.000000 0.000000 10.000000 
L_rear_hand02 0.000000 0.000000 0.000000 0.000000 0.000000 0.000000 10.000000 
L_rear_hand03 0.000000 0.000000 0.000000 0.000000 0.000000 0.000000 10.000000 
#Beginning of Data. Separated by tabs
#Fr	Tx	Ty	Tz	Rx	Ry	Rz	SF
[MASTER]
19 -0.000349 1800.534302 0.000079 0.001660 0.001660 0.001660 1800.534180
20 -0.000368 1900.563843 0.000084 0.001660 0.001660 0.001660 1900.563843
[root]
19 -23.601288 16.067327 1454.750610 -91.713722 -11.580050 -89.460670 1455.030762
20 -20.116371 12.940036 1451.905884 -91.710152 -11.580053 -89.457008 1452.102905
[chest]
19 -84.512650 -34.090519 0.000000 -2.169962 -0.015214 168.035873 91.129311
20 -84.512650 -34.090519 0.000000 -2.170491 -0.007472 168.184921 91.129311
[L_mid_tent01]
19 27.299114 22.179121 -249.918701 -20.390799 10.579392 13.937662 252.381683
20 27.299116 22.179113 -249.918701 -20.525942 11.355939 13.444547 252.381683
[R_mid_tent01]
19 23.228794 24.509907 226.238495 -166.359177 -17.264126 25.719147 228.744751
20 23.228794 24.509907 226.238495 -166.147125 -17.801260 25.611973 228.744751
[spine01]
19 -0.361383 -0.195265 0.000000 -0.000001 -0.000007 22.052340 0.410763
20 -0.361383 -0.195265 0.000000 -0.000001 -0.000007 22.052340 0.410763
[Bip01_Neck]
19 165.484543 71.581718 0.000119 176.643677 -1.657967 43.431911 180.302734
20 165.484543 71.581718 0.000119 176.643677 -1.657967 43.431911 180.302734
[L_humerus]
19 -13.983130 -135.272980 -120.471481 -5.157094 71.521400 83.431496 181.680161
20 -13.983130 -135.272980 -120.471481 -5.315628 70.112915 84.043678 181.680161
[R_humerus]
19 -13.983309 -135.273102 125.287651 30.551105 -71.562187 64.943520 184.909012
20 -13.983309 -135.273102 125.287651 29.086266 -70.680626 66.490692 184.909012
[weapon_bone]
19 235.964890 -300.705902 0.000000 0.000000 -89.951546 -128.212341 382.234833
20 235.964890 -300.705902 0.000000 0.000000 -89.951546 -128.212341 382.234833
[Bip01_Head]
19 213.326721 186.042252 7.559232 4.438351 -0.183086 -43.897949 283.155701
20 213.326721 186.042297 7.559228 4.443147 0.096368 -43.897820 283.155731
[eye_left_bone]
19 -24.626970 125.451866 -64.772606 0.000000 -90.000000 -99.840431 143.318359
20 -24.626970 125.451866 -64.772606 0.000000 -90.000000 -99.840431 143.318359
[eye_right_bone]
19 -24.626970 125.451866 64.327362 0.000000 -89.965736 80.156380 143.117676
20 -24.626970 125.451866 64.327362 0.000000 -89.965736 80.156380 143.117676
[L_forearm]
19 322.776093 0.000000 -0.000119 0.000396 -0.002314 -109.419975 322.776093
20 322.776093 0.000000 -0.000119 0.000396 -0.002314 -109.419975 322.776093
[L_front_hand]
19 241.149185 -0.042021 -3.300071 -178.667953 -1.835447 -27.422350 241.171753
20 241.149185 -0.042021 -3.300071 -178.667953 -1.835447 -27.422350 241.171753
[L_weapon_bone]
19 156.183838 0.000000 0.000000 0.000014 0.000007 0.000001 156.183838
20 156.183838 0.000000 0.000000 0.000014 0.000007 0.000001 156.183838
[L_front_hand01_01]
19 86.095154 20.947098 -0.655860 -0.291918 -0.522545 67.227623 88.609184
20 86.095154 20.947098 -0.655860 -0.299135 -0.518030 67.911942 88.609184
[L_front_hand02_01]
19 86.935165 -11.437475 24.513514 143.299133 -55.645802 -48.269917 91.046425
20 86.935165 -11.437475 24.513514 144.114838 -56.047676 -49.250378 91.046425
[L_front_hand03_01]
19 86.637497 -14.123976 -20.424902 -143.556351 53.862484 -50.232792 90.126129
20 86.637497 -14.123976 -20.424902 -144.319244 54.262909 -51.171417 90.126129
[L_front_hand01_02]
19 71.020905 -0.000179 0.000030 0.000316 -0.002326 -105.462708 71.020905
20 71.020905 -0.000179 0.000030 0.000316 -0.002326 -105.496872 71.020905
[L_front_hand02_02]
19 71.020927 -0.000119 0.000060 0.000316 -0.002326 -105.462708 71.020927
20 71.020927 -0.000119 0.000060 0.000316 -0.002326 -105.496872 71.020927
[L_front_hand03_02]
19 71.020905 -0.000060 0.000060 0.000316 -0.002326 -105.462708 71.020905
20 71.020905 -0.000060 0.000060 0.000316 -0.002326 -105.496872 71.020905
[R_forearm]
19 322.776428 -0.000060 0.000030 0.202103 0.065158 -108.062805 322.776428
20 322.776428 -0.000060 0.000030 0.202103 0.065158 -108.062805 322.776428
[R_front_hand]
19 238.847015 -0.006795 2.210259 -2.635298 -10.645461 -26.312506 238.857239
20 238.847015 -0.006795 2.210259 -2.635298 -10.645461 -26.312506 238.857239
[R_weapon_bone]
19 155.664093 0.002503 -0.000030 0.003487 0.001180 -90.988930 155.664078
20 155.664093 0.002503 -0.000030 0.003487 0.001180 -90.988930 155.664078
[R_front_hand01_01]
19 87.624611 14.231146 22.918642 -141.470352 -54.661587 46.147430 91.683487
20 87.624611 14.231146 22.918642 -142.976746 -55.478233 47.985172 91.683487
[R_front_hand02_01]
19 89.356956 14.367283 -19.491137 142.182632 53.068485 48.753609 92.579636
20 89.356956 14.367283 -19.491137 143.617325 53.874443 50.539886 92.579636
[R_front_hand03_01]
19 87.286232 -22.307278 -0.143439 0.083738 -0.444646 -65.861656 90.091743
20 87.286232 -22.307278 -0.143439 0.095752 -0.445027 -67.192543 90.091743
[R_front_hand01_02]
19 71.020905 0.000060 0.000119 0.002323 -0.000334 106.381714 71.020905
20 71.020905 0.000060 0.000119 0.002323 -0.000334 106.381714 71.020905
[R_front_hand02_02]
19 71.020844 -0.000030 -0.000119 0.002323 -0.000334 106.381714 71.020836
20 71.020844 -0.000030 -0.000119 0.002323 -0.000334 106.381714 71.020836
[R_front_hand03_02]
19 71.020905 0.000000 0.000030 0.002323 -0.000334 106.381714 71.020905
20 71.020905 0.000000 0.000030 0.002323 -0.000334 106.381714 71.020905
[null_rope01_connect]
19 328.732483 0.000000 -0.000238 -157.970398 -65.665337 -116.112358 328.732483
20 328.732483 0.000000 -0.000238 -156.112274 -65.227432 -117.617020 328.732483
[Rope1_Seg01]
19 -0.000034 0.000004 0.000137 46.005447 2.350374 -121.188843 0.000142
20 -0.000036 0.000002 0.000145 46.047516 2.688452 -121.178169 0.000149
[Rope1_Seg02]
19 139.999863 -0.000179 0.000000 7.908813 4.211504 1.657183 139.999863
20 139.999863 -0.000179 0.000000 8.177478 4.125613 1.983675 139.999863
[Rope1_Seg03]
19 139.999924 0.000060 -0.000060 4.052179 3.797490 -0.542303 139.999924
20 139.999924 0.000060 -0.000060 4.941020 3.863228 0.123829 139.999924
[Rope1_Seg04]
19 139.999924 -0.000060 -0.000119 4.934160 4.764730 -0.219018 139.999924
20 139.999924 -0.000060 -0.000119 5.621008 4.765207 0.329898 139.999924
[Rope1_Seg05]
19 139.999832 0.000119 -0.000060 18.285500 9.032667 8.955238 139.999832
20 139.999832 0.000119 -0.000060 15.385392 7.944520 6.991930 139.999832
[Rope1_Seg06]
19 139.999954 0.000119 -0.000060 8.207544 5.600455 3.164212 139.999954
20 139.999954 0.000119 -0.000060 7.106694 4.761431 2.633574 139.999954
[Rope1_Seg07]
19 139.999985 0.000060 0.000000 3.349128 2.870429 0.892346 139.999985
20 139.999985 0.000060 0.000000 3.072090 2.523292 0.806691 139.999985
[Rope1_Seg09]
19 121.602913 0.000119 -0.000089 -89.793175 -1.359789 0.847147 121.602913
20 121.602913 0.000119 -0.000089 -89.793175 -1.359789 0.847147 121.602913
[L_mid_hand01]
19 103.859421 1.038730 8.195221 130.544373 -67.584534 -38.866943 104.187431
20 103.859421 1.038730 8.195221 130.544373 -67.584534 -38.866943 104.187431
[L_mid_hand02]
19 105.572853 -4.139662 -10.864139 -168.923172 43.409309 -73.498886 106.211075
20 105.572853 -4.139662 -10.864139 -168.923172 43.409309 -73.498886 106.211075
[L_mid_hand03]
19 104.641464 17.579376 -3.913581 -6.012627 17.808174 74.893669 106.179977
20 104.641464 17.579376 -3.913581 -6.012627 17.808174 74.893669 106.179977
[null_rope02_connect]
19 328.732849 0.000179 -0.000119 -140.355865 69.326523 -33.921406 328.732849
20 328.732849 0.000179 -0.000119 -139.922882 68.765465 -33.487179 328.732849
[Rope2_Seg01]
19 0.000095 0.000153 0.000069 37.684769 2.970190 -37.188702 0.000193
20 0.000095 0.000153 0.000072 36.660336 3.986117 -37.390121 0.000194
[Rope2_Seg02]
19 139.999741 -0.000060 -0.000119 -20.247425 -4.296748 -7.427259 139.999756
20 139.999741 -0.000060 -0.000119 -19.224884 -3.937912 -7.695172 139.999756
[Rope2_Seg03]
19 140.000107 0.000030 0.000000 -4.937832 0.639459 -2.778569 140.000107
20 140.000107 0.000030 0.000000 -3.251225 1.315651 -2.351493 140.000107
[Rope2_Seg04]
19 139.999802 0.000000 -0.000060 -3.103081 0.729125 -2.007126 139.999802
20 139.999802 0.000000 -0.000060 -3.212112 0.887744 -2.284518 139.999802
[Rope2_Seg05]
19 139.999985 -0.000060 0.000119 -34.780037 -5.308703 -26.377556 139.999985
20 139.999985 -0.000060 0.000119 -34.645313 -7.074637 -26.769522 139.999985
[Rope2_Seg06]
19 139.999893 -0.000030 -0.000119 -15.019989 10.406600 -25.032703 139.999893
20 139.999893 -0.000030 -0.000119 -15.460511 8.955122 -25.604195 139.999893
[Rope2_Seg07]
19 139.999893 0.000060 -0.000060 -2.343341 5.755800 -7.734473 139.999893
20 139.999893 0.000060 -0.000060 -2.464958 5.371987 -7.919848 139.999893
[Rope2_Seg09]
19 121.338966 0.000089 -0.000060 33.793236 -1.359788 -0.847141 121.338966
20 121.338966 0.000089 -0.000060 33.793236 -1.359788 -0.847141 121.338966
[R_mid_hand01]
19 104.680779 11.144459 -10.335981 -20.399689 43.830399 64.493866 105.778534
20 104.680779 11.144459 -10.335981 -17.390701 44.882233 68.793839 105.778534
[R_mid_hand02]
19 104.070427 2.443552 8.231699 55.242622 -64.206039 32.532093 104.424065
20 104.070427 2.443552 8.231699 50.967751 -66.804413 37.227455 104.424065
[R_mid_hand03]
19 106.028137 -11.221827 -5.996406 -175.861633 15.275426 -71.940269 106.788818
20 106.028137 -11.221827 -5.996406 -176.756866 15.486362 -75.308266 106.788818
[spine02]
19 129.756927 0.001550 0.000119 0.360061 -4.044797 -12.915058 129.756927
20 129.756927 0.001550 0.000119 0.360061 -4.044797 -12.915058 129.756927
[spine03]
19 78.613983 0.081736 -4.898992 1.896495 3.831288 16.473045 78.766518
20 78.613983 0.081736 -4.898991 1.896495 3.831288 16.473045 78.766518
[pelvis]
19 169.435242 0.051022 0.000000 -0.060465 -0.180225 14.087930 169.435257
20 169.435242 0.051022 0.000000 -0.060465 -0.180225 14.087930 169.435257
[null_rope03_connect]
19 -1.257226 -2.466202 137.391083 154.604568 -89.388985 -92.705627 137.418976
20 -1.257226 -2.466202 137.391083 154.203430 -89.390266 -92.304131 137.418976
[null_rope04_connect]
19 -1.259640 -2.480268 -137.844437 154.604568 -89.388985 -92.705627 137.872513
20 -1.259640 -2.480268 -137.844437 154.203430 -89.390266 -92.304131 137.872513
[Rope3_Seg01]
19 -0.000028 -0.000137 0.000000 14.319775 34.951218 -87.643661 0.000140
20 -0.000028 -0.000145 0.000000 16.791994 33.672737 -83.039482 0.000148
[Rope3_Seg02]
19 139.999924 -0.000119 0.000060 -0.356101 -2.123807 6.199408 139.999924
20 139.999924 -0.000119 0.000060 -0.480156 -1.858703 4.977163 139.999924
[Rope3_Seg03]
19 139.999924 -0.000119 0.000119 -1.010455 -2.667006 7.684223 139.999924
20 139.999924 -0.000119 0.000119 -0.909285 -2.225197 5.839212 139.999924
[Rope3_Seg04]
19 139.999924 0.000119 0.000000 -5.152859 -3.524369 19.735620 139.999924
20 139.999924 0.000119 0.000000 -3.773902 -2.278698 15.920526 139.999924
[Rope3_Seg05]
19 139.999924 -0.000238 0.000060 -3.278707 -3.964513 5.994181 139.999924
20 139.999924 -0.000238 0.000060 -2.129104 -3.232019 3.927233 139.999924
[Rope3_Seg06]
19 139.999893 -0.000119 -0.000060 4.448025 0.976721 -30.569998 139.999893
20 139.999893 -0.000119 -0.000060 3.746634 -1.837129 -27.509787 139.999893
[Rope3_Seg07]
19 139.999771 0.000060 -0.000119 -0.977403 -1.008050 -21.850080 139.999771
20 139.999771 0.000060 -0.000119 -0.588062 -2.492223 -20.505993 139.999771
[Rope3_Seg08]
19 139.999985 -0.000060 0.000000 -1.138011 -0.548838 -8.473099 139.999985
20 139.999985 -0.000060 0.000000 -0.945677 -1.208769 -8.439056 139.999985
[Rope3_Seg09]
19 90.185997 -0.000179 -0.000060 89.793228 -1.359877 -0.847183 90.185997
20 90.185997 -0.000179 -0.000060 89.793228 -1.359877 -0.847183 90.185997
[R_rear_hand01]
19 103.366196 -6.073594 -10.757982 -175.914093 24.346794 -69.567574 104.101845
20 103.366196 -6.073594 -10.757982 -177.218140 24.518011 -72.727440 104.101845
[R_rear_hand02]
19 100.509819 12.039542 -7.992327 -15.704340 35.886925 67.395035 101.543350
20 100.509819 12.039542 -7.992327 -13.655097 36.621037 70.859306 101.543350
[R_rear_hand03]
19 101.539970 5.215704 5.435467 74.640633 -68.020927 18.152254 101.819031
20 101.539970 5.215704 5.435467 72.467621 -70.792877 20.476612 101.819031
[Rope4_Seg01]
19 -0.000010 -0.000008 -0.000153 -101.191162 26.338757 -104.558640 0.000153
20 -0.000010 -0.000004 -0.000153 -100.289047 26.280123 -102.393181 0.000153
[Rope4_Seg02]
19 139.999985 0.000060 0.000119 -0.240953 -4.316141 0.396778 139.999985
20 139.999985 0.000060 0.000119 -0.147499 -4.192859 0.289151 139.999985
[Rope4_Seg03]
19 139.999924 0.000000 -0.000238 -0.089576 -4.846273 0.401458 139.999924
20 139.999924 0.000000 -0.000238 -0.004360 -4.940613 0.254315 139.999924
[Rope4_Seg04]
19 139.999985 0.000000 0.000119 1.002341 -17.232815 -0.925580 139.999985
20 139.999985 0.000000 0.000119 1.524461 -19.026722 -1.903828 139.999985
[Rope4_Seg05]
19 139.999802 -0.000060 -0.000119 0.191214 1.918704 1.276118 139.999802
20 139.999802 -0.000060 -0.000119 -0.021241 6.416085 2.066179 139.999802
[Rope4_Seg06]
19 139.999924 0.000000 0.000060 1.429902 29.656303 3.962387 139.999924
20 139.999924 0.000000 0.000060 2.565045 33.089294 6.050029 139.999924
[Rope4_Seg07]
19 139.999802 0.000000 0.000000 2.467371 14.982679 1.753185 139.999802
20 139.999802 0.000000 0.000000 2.354038 13.353164 2.055379 139.999802
[Rope4_Seg08]
19 139.999924 0.000000 0.000119 -0.212873 5.499372 0.481628 139.999924
20 139.999924 0.000000 0.000119 -0.312431 5.024941 0.626567 139.999924
[Rope4_Seg09]
19 90.185791 0.000060 0.000060 -135.617828 2.228885 0.850567 90.185791
20 90.185791 0.000060 0.000060 -135.617828 2.228885 0.850567 90.185791
[L_rear_hand01]
19 101.696655 -8.392275 -7.654577 -12.874829 -36.868488 107.832764 102.329041
20 101.696655 -8.392275 -7.654577 -12.874829 -36.868488 107.832764 102.329041
[L_rear_hand02]
19 102.726799 -1.568258 5.773216 71.484581 71.816628 158.486160 102.900848
20 102.726799 -1.568258 5.773216 71.484581 71.816628 158.486160 102.900848
[L_rear_hand03]
19 104.552910 9.721220 -10.420293 -177.714203 -24.565960 -106.089035 105.519653
20 104.552910 9.721220 -10.420293 -177.714203 -24.565960 -106.089035 105.519653
